{
.appVersion = "983";
copyright = "Copyright © 2017 Adobe Systems Incorporated (http://www.adobe.com/).";
customParameters = (
{
name = description;
value = "Dr. Ken Lunde (project architect, glyph set definition & overall production); Masataka HATTORI 服部正貴 (production & ideograph elements)";
},
{
name = license;
value = "This Font Software is licensed under the SIL Open Font License, Version 1.1. This Font Software is distributed on an \"AS IS\" BASIS, WITHOUT WARRANTIES OR CONDITIONS OF ANY KIND, either express or implied. See the SIL Open Font License for the specific language, permissions and limitations governing your use of this Font Software.";
},
{
name = licenseURL;
value = "http://scripts.sil.org/OFL";
},
{
name = vendorID;
value = GOOG;
},
{
name = panose;
value = (
2,
2,
9,
0,
0,
0,
0,
0,
0,
0
);
},
{
name = unicodeRanges;
value = (
0,
1,
7,
28,
29,
36,
42,
43,
44,
45,
48,
49,
50,
51,
52,
54,
55,
56,
57,
59,
61,
65,
66,
68
);
},
{
name = codePageRanges;
value = (
1252,
1250,
1251,
1258,
932,
936,
949,
1361
);
},
{
name = ROS;
value = "Adobe-Identity-0";
},
{
name = glyphOrder;
value = (
.notdef,
space
);
}
);
date = "2017-03-21 13:00:54 +0000";
designer = "Ryoko NISHIZUKA 西塚涼子 (kana & ideographs); Frank Grießhammer (Latin, Greek & Cyrillic); Wenlong ZHANG 张文龙 (bopomofo); Sandoll Communications 산돌커뮤니케이션, Soohyun PARK 박수현, Yejin WE 위예진 & Donghoon HAN 한동훈 (hangul elements, letters & syllables)";
designerURL = "http://www.adobe.com/type/";
familyName = "Yaku Han MP";
fontMaster = (
{
alignmentZones = (
"{1900, 0}",
"{1100, 0}",
"{1100, 0}",
"{1100, 0}",
"{1100, 0}",
"{1100, 0}",
"{1100, 0}",
"{1100, 0}",
"{1100, 0}",
"{1100, 0}",
"{1100, 0}",
"{1100, 0}",
"{856, 0}",
"{752, 17}",
"{752, 17}",
"{752, 17}",
"{752, 17}",
"{752, 0}",
"{747, 20}",
"{717, 17}",
"{551, 19}",
"{551, 19}",
"{551, 0}",
"{546, 17}",
"{0, 0}",
"{0, -17}",
"{0, -18}",
"{0, -18}",
"{0, -18}",
"{0, -18}",
"{0, -20}",
"{-180, 0}",
"{-182, 0}",
"{-244, 0}",
"{-246, 0}",
"{-246, 0}",

glyphs = (
{
glyphname = .notdef;
lastChange = "2017-04-16 02:50:32 +0000";
layers = (
{
layerId = "74F1BA84-66A2-47A9-8A2A-F341E9B3CA59";
paths = (
{
closed = 1;
nodes = (
"100 -120 LINE",
"900 -120 LINE",
"900 880 LINE",
"100 880 LINE"
);
},
{
closed = 1;
nodes = (
"500 421 LINE",
"182 830 LINE",
"818 830 LINE"
);
},
{
closed = 1;
nodes = (
"532 380 LINE",
"850 789 LINE",
"850 -29 LINE"
);
},
{
closed = 1;
nodes = (
"182 -70 LINE",
"500 339 LINE",
"818 -70 LINE"
);
},
{
closed = 1;
nodes = (
"150 789 LINE",
"468 380 LINE",
"150 -29 LINE"
);
}
);
vertWidth = 1000;
width = 1000;
}
);
note = .notdef;
},
{
glyphname = "comma-han";
lastChange = "2017-04-16 02:54:06 +0000";
layers = (
{
layerId = "74F1BA84-66A2-47A9-8A2A-F341E9B3CA59";
paths = (
{
closed = 1;
nodes = (
"50 171 LINE",
"140 95 OFFCURVE",
"161 15 OFFCURVE",
"186 -36 CURVE SMOOTH",
"202 -69 OFFCURVE",
"226 -82 OFFCURVE",
"259 -82 CURVE SMOOTH",
"306 -82 OFFCURVE",
"336 -50 OFFCURVE",
"336 -5 CURVE SMOOTH",
"336 16 OFFCURVE",
"333 38 OFFCURVE",
"317 62 CURVE SMOOTH",
"278 122 OFFCURVE",
"199 166 OFFCURVE",
"57 182 CURVE"
);
}
);
vertWidth = 1000;
width = 536;
}
);
leftKerningGroup = "comma-han";
note = "comma-han";
unicode = 3001;
},
{
glyphname = ellipsis;
lastChange = "2017-04-16 02:50:32 +0000";
layers = (
{
layerId = "74F1BA84-66A2-47A9-8A2A-F341E9B3CA59";
paths = (
{
closed = 1;
nodes = (
"200 320 OFFCURVE",
"227 347 OFFCURVE",
"227 380 CURVE SMOOTH",
"227 413 OFFCURVE",
"200 440 OFFCURVE",
"167 440 CURVE SMOOTH",
"134 440 OFFCURVE",
"107 413 OFFCURVE",
"107 380 CURVE SMOOTH",
"107 347 OFFCURVE",
"134 320 OFFCURVE",
"167 320 CURVE SMOOTH"
);
},
{
closed = 1;
nodes = (
"533 320 OFFCURVE",
"560 347 OFFCURVE",
"560 380 CURVE SMOOTH",
"560 413 OFFCURVE",
"533 440 OFFCURVE",
"500 440 CURVE SMOOTH",
"467 440 OFFCURVE",
"440 413 OFFCURVE",
"440 380 CURVE SMOOTH",
"440 347 OFFCURVE",
"467 320 OFFCURVE",
"500 320 CURVE SMOOTH"
);
},
{
closed = 1;
nodes = (
"866 320 OFFCURVE",
"893 347 OFFCURVE",
"893 380 CURVE SMOOTH",
"893 413 OFFCURVE",
"866 440 OFFCURVE",
"833 440 CURVE SMOOTH",
"800 440 OFFCURVE",
"773 413 OFFCURVE",
"773 380 CURVE SMOOTH",
"773 347 OFFCURVE",
"800 320 OFFCURVE",
"833 320 CURVE SMOOTH"
);
}
);
vertWidth = 1000;
width = 1000;
}
);
note = ellipsis;
unicode = 2026;
},
{
glyphname = "period-han";
lastChange = "2017-04-16 02:54:16 +0000";
layers = (
{
layerId = "74F1BA84-66A2-47A9-8A2A-F341E9B3CA59";
paths = (
{
closed = 1;
nodes = (
"272 -84 OFFCURVE",
"335 -20 OFFCURVE",
"335 59 CURVE SMOOTH",
"335 138 OFFCURVE",
"272 201 OFFCURVE",
"193 201 CURVE SMOOTH",
"114 201 OFFCURVE",
"50 138 OFFCURVE",
"50 59 CURVE SMOOTH",
"50 -20 OFFCURVE",
"114 -84 OFFCURVE",
"193 -84 CURVE SMOOTH"
);
},
{
closed = 1;
nodes = (
"250 163 OFFCURVE",
"297 116 OFFCURVE",
"297 59 CURVE SMOOTH",
"297 2 OFFCURVE",
"250 -46 OFFCURVE",
"193 -46 CURVE SMOOTH",
"135 -46 OFFCURVE",
"88 2 OFFCURVE",
"88 59 CURVE SMOOTH",
"88 116 OFFCURVE",
"135 163 OFFCURVE",
"193 163 CURVE SMOOTH"
);
}
);
vertWidth = 1000;
width = 735;
}
);
leftKerningGroup = "comma-han";
note = "period-han";
unicode = 3002;
},
{
glyphname = colon.full;
lastChange = "2017-04-16 02:54:42 +0000";
layers = (
{
layerId = "74F1BA84-66A2-47A9-8A2A-F341E9B3CA59";
paths = (
{
closed = 1;
nodes = (
"150 77 OFFCURVE",
"192 35 OFFCURVE",
"246 35 CURVE SMOOTH",
"300 35 OFFCURVE",
"342 77 OFFCURVE",
"342 129 CURVE SMOOTH",
"342 182 OFFCURVE",
"300 226 OFFCURVE",
"246 226 CURVE SMOOTH",
"192 226 OFFCURVE",
"150 182 OFFCURVE",
"150 129 CURVE SMOOTH"
);
},
{
closed = 1;
nodes = (
"150 524 OFFCURVE",
"192 482 OFFCURVE",
"246 482 CURVE SMOOTH",
"300 482 OFFCURVE",
"342 524 OFFCURVE",
"342 576 CURVE SMOOTH",
"342 629 OFFCURVE",
"300 672 OFFCURVE",
"246 672 CURVE SMOOTH",
"192 672 OFFCURVE",
"150 629 OFFCURVE",
"150 576 CURVE SMOOTH"
);
}
);
vertWidth = 1000;
width = 492;
}
);
note = colon.full;
unicode = FF1A;
},
{
glyphname = exclam.full;
lastChange = "2017-04-16 02:54:42 +0000";
layers = (
{
layerId = "74F1BA84-66A2-47A9-8A2A-F341E9B3CA59";
paths = (
{
closed = 1;
nodes = (
"291 -14 OFFCURVE",
"331 25 OFFCURVE",
"331 74 CURVE SMOOTH",
"331 122 OFFCURVE",
"291 163 OFFCURVE",
"240 163 CURVE SMOOTH",
"189 163 OFFCURVE",
"150 122 OFFCURVE",
"150 74 CURVE SMOOTH",
"150 25 OFFCURVE",
"189 -14 OFFCURVE",
"240 -14 CURVE SMOOTH"
);
},
{
closed = 1;
nodes = (
"191 769 OFFCURVE",
"152 736 OFFCURVE",
"152 668 CURVE SMOOTH",
"152 620 OFFCURVE",
"161 543 OFFCURVE",
"201 363 CURVE SMOOTH",
"226 243 LINE",
"256 243 LINE",
"281 363 LINE SMOOTH",
"321 542 OFFCURVE",
"330 620 OFFCURVE",
"330 668 CURVE SMOOTH",
"330 736 OFFCURVE",
"291 769 OFFCURVE",
"241 769 CURVE SMOOTH"
);
}
);
vertWidth = 1000;
width = 481;
}
);
note = exclam.full;
unicode = FF01;
},
{
glyphname = question.full;
lastChange = "2017-04-16 02:54:42 +0000";
layers = (
{
layerId = "74F1BA84-66A2-47A9-8A2A-F341E9B3CA59";
paths = (
{
closed = 1;
nodes = (
"324 163 OFFCURVE",
"285 122 OFFCURVE",
"285 74 CURVE SMOOTH",
"285 25 OFFCURVE",
"324 -14 OFFCURVE",
"375 -14 CURVE SMOOTH",
"427 -14 OFFCURVE",
"466 25 OFFCURVE",
"466 74 CURVE SMOOTH",
"466 122 OFFCURVE",
"427 163 OFFCURVE",
"375 163 CURVE SMOOTH"
);
},
{
closed = 1;
nodes = (
"316 728 LINE",
"330 732 OFFCURVE",
"344 733 OFFCURVE",
"359 733 CURVE SMOOTH",
"447 733 OFFCURVE",
"503 690 OFFCURVE",
"503 607 CURVE SMOOTH",
"503 541 OFFCURVE",
"479 508 OFFCURVE",
"426 460 CURVE SMOOTH",
"366 404 OFFCURVE",
"339 379 OFFCURVE",
"339 332 CURVE SMOOTH",
"339 306 OFFCURVE",
"348 261 OFFCURVE",
"354 229 CURVE",
"389 229 LINE",
"396 285 LINE SMOOTH",
"402 340 OFFCURVE",
"430 355 OFFCURVE",
"510 404 CURVE SMOOTH",
"613 466 OFFCURVE",
"651 512 OFFCURVE",
"651 592 CURVE SMOOTH",
"651 699 OFFCURVE",
"565 769 OFFCURVE",
"402 769 CURVE SMOOTH",
"259 769 OFFCURVE",
"152 700 OFFCURVE",
"150 571 CURVE",
"164 551 OFFCURVE",
"188 538 OFFCURVE",
"217 538 CURVE SMOOTH",
"264 538 OFFCURVE",
"291 560 OFFCURVE",
"301 635 CURVE SMOOTH"
);
}
);
vertWidth = 1000;
width = 801;
}
);
note = question.full;
unicode = FF1F;
},
{
glyphname = semicolon.full;
lastChange = "2017-04-16 02:54:42 +0000";
layers = (
{
layerId = "74F1BA84-66A2-47A9-8A2A-F341E9B3CA59";
paths = (
{
closed = 1;
nodes = (
"169 -129 LINE",
"297 -74 OFFCURVE",
"346 43 OFFCURVE",
"346 142 CURVE SMOOTH",
"346 217 OFFCURVE",
"300 256 OFFCURVE",
"246 256 CURVE SMOOTH",
"190 256 OFFCURVE",
"152 213 OFFCURVE",
"152 165 CURVE SMOOTH",
"152 91 OFFCURVE",
"225 65 OFFCURVE",
"270 49 CURVE",
"262 3 OFFCURVE",
"231 -55 OFFCURVE",
"150 -95 CURVE"
);
},
{
closed = 1;
nodes = (
"154 524 OFFCURVE",
"196 482 OFFCURVE",
"250 482 CURVE SMOOTH",
"304 482 OFFCURVE",
"346 524 OFFCURVE",
"346 576 CURVE SMOOTH",
"346 629 OFFCURVE",
"304 672 OFFCURVE",
"250 672 CURVE SMOOTH",
"196 672 OFFCURVE",
"154 629 OFFCURVE",
"154 576 CURVE SMOOTH"
);
}
);
vertWidth = 1000;
width = 496;
}
);
note = semicolon.full;
unicode = FF1B;
},
{
glyphname = blacklenticularbracketleft;
lastChange = "2017-04-16 02:55:25 +0000";
layers = (
{
layerId = "74F1BA84-66A2-47A9-8A2A-F341E9B3CA59";
paths = (
{
closed = 1;
nodes = (
"543 -78 LINE",
"385 -4 OFFCURVE",
"280 154 OFFCURVE",
"280 380 CURVE SMOOTH",
"280 606 OFFCURVE",
"385 764 OFFCURVE",
"543 838 CURVE",
"543 855 LINE",
"200 855 LINE",
"200 -95 LINE",
"543 -95 LINE"
);
}
);
vertWidth = 1000;
width = 573;
}
);
note = blacklenticularbracketleft;
unicode = 3010;
},
{
glyphname = blacklenticularbracketright;
lastChange = "2017-04-16 02:55:39 +0000";
layers = (
{
layerId = "74F1BA84-66A2-47A9-8A2A-F341E9B3CA59";
paths = (
{
closed = 1;
nodes = (
"30 -95 LINE",
"373 -95 LINE",
"373 855 LINE",
"30 855 LINE",
"30 838 LINE",
"188 764 OFFCURVE",
"293 606 OFFCURVE",
"293 380 CURVE SMOOTH",
"293 154 OFFCURVE",
"188 -4 OFFCURVE",
"30 -78 CURVE"
);
}
);
vertWidth = 1000;
width = 573;
}
);
note = blacklenticularbracketright;
unicode = 3011;
},
{
glyphname = braceleft.full;
lastChange = "2017-04-16 02:55:25 +0000";
layers = (
{
layerId = "74F1BA84-66A2-47A9-8A2A-F341E9B3CA59";
paths = (
{
closed = 1;
nodes = (
"605 846 LINE",
"605 880 LINE",
"564 880 LINE SMOOTH",
"413 880 OFFCURVE",
"312 833 OFFCURVE",
"312 732 CURVE SMOOTH",
"312 645 OFFCURVE",
"360 579 OFFCURVE",
"360 504 CURVE SMOOTH",
"360 454 OFFCURVE",
"331 425 OFFCURVE",
"200 398 CURVE",
"200 364 LINE",
"332 336 OFFCURVE",
"360 308 OFFCURVE",
"360 258 CURVE SMOOTH",
"360 182 OFFCURVE",
"312 117 OFFCURVE",
"312 30 CURVE SMOOTH",
"312 -71 OFFCURVE",
"413 -119 OFFCURVE",
"564 -119 CURVE SMOOTH",
"605 -119 LINE",
"605 -85 LINE",
"565 -81 LINE SMOOTH",
"491 -74 OFFCURVE",
"455 -36 OFFCURVE",
"455 33 CURVE SMOOTH",
"455 95 OFFCURVE",
"475 162 OFFCURVE",
"475 230 CURVE SMOOTH",
"475 299 OFFCURVE",
"426 355 OFFCURVE",
"317 381 CURVE",
"426 406 OFFCURVE",
"475 462 OFFCURVE",
"475 531 CURVE SMOOTH",
"475 600 OFFCURVE",
"455 664 OFFCURVE",
"455 730 CURVE SMOOTH",
"455 798 OFFCURVE",
"491 837 OFFCURVE",
"565 843 CURVE SMOOTH"
);
}
);
vertWidth = 1000;
width = 635;
}
);
note = braceleft.full;
unicode = FF5B;
},
{
glyphname = braceright.full;
lastChange = "2017-04-16 02:55:39 +0000";
layers = (
{
layerId = "74F1BA84-66A2-47A9-8A2A-F341E9B3CA59";
paths = (
{
closed = 1;
nodes = (
"435 397 LINE",
"303 425 OFFCURVE",
"275 453 OFFCURVE",
"275 503 CURVE SMOOTH",
"275 579 OFFCURVE",
"323 644 OFFCURVE",
"323 731 CURVE SMOOTH",
"323 832 OFFCURVE",
"222 880 OFFCURVE",
"71 880 CURVE SMOOTH",
"30 880 LINE",
"30 846 LINE",
"70 842 LINE SMOOTH",
"144 835 OFFCURVE",
"180 797 OFFCURVE",
"180 728 CURVE SMOOTH",
"180 666 OFFCURVE",
"160 599 OFFCURVE",
"160 531 CURVE SMOOTH",
"160 462 OFFCURVE",
"209 406 OFFCURVE",
"318 380 CURVE",
"209 355 OFFCURVE",
"160 299 OFFCURVE",
"160 230 CURVE SMOOTH",
"160 161 OFFCURVE",
"180 97 OFFCURVE",
"180 31 CURVE SMOOTH",
"180 -37 OFFCURVE",
"144 -76 OFFCURVE",
"70 -82 CURVE SMOOTH",
"30 -85 LINE",
"30 -119 LINE",
"71 -119 LINE SMOOTH",
"222 -119 OFFCURVE",
"323 -72 OFFCURVE",
"323 29 CURVE SMOOTH",
"323 116 OFFCURVE",
"275 182 OFFCURVE",
"275 257 CURVE SMOOTH",
"275 307 OFFCURVE",
"304 336 OFFCURVE",
"435 363 CURVE"
);
}
);
vertWidth = 1000;
width = 635;
}
);
note = braceright.full;
unicode = FF5D;
},
{
glyphname = cornerbracketleft;
lastChange = "2017-04-16 02:55:25 +0000";
layers = (
{
layerId = "74F1BA84-66A2-47A9-8A2A-F341E9B3CA59";
paths = (
{
closed = 1;
nodes = (
"200 220 LINE",
"243 220 LINE",
"243 814 LINE",
"530 814 LINE",
"530 855 LINE",
"200 855 LINE"
);
}
);
vertWidth = 1000;
width = 560;
}
);
note = cornerbracketleft;
unicode = 300C;
},
{
glyphname = cornerbracketright;
lastChange = "2017-04-16 02:55:39 +0000";
layers = (
{
layerId = "74F1BA84-66A2-47A9-8A2A-F341E9B3CA59";
paths = (
{
closed = 1;
nodes = (
"360 540 LINE",
"317 540 LINE",
"317 -54 LINE",
"30 -54 LINE",
"30 -95 LINE",
"360 -95 LINE"
);
}
);
vertWidth = 1000;
width = 560;
}
);
note = cornerbracketright;
unicode = 300D;
},
{
glyphname = dblanglebracketleft;
lastChange = "2017-04-16 02:55:25 +0000";
layers = (
{
layerId = "74F1BA84-66A2-47A9-8A2A-F341E9B3CA59";
paths = (
{
closed = 1;
nodes = (
"240 380 LINE",
"503 840 LINE",
"474 858 LINE",
"200 380 LINE",
"474 -98 LINE",
"503 -80 LINE"
);
},
{
closed = 1;
nodes = (
"382 380 LINE",
"645 840 LINE",
"616 858 LINE",
"342 380 LINE",
"616 -98 LINE",
"645 -80 LINE"
);
}
);
vertWidth = 1000;
width = 675;
}
);
note = dblanglebracketleft;
unicode = 300A;
},
{
glyphname = dblanglebracketright;
lastChange = "2017-04-16 02:55:39 +0000";
layers = (
{
layerId = "74F1BA84-66A2-47A9-8A2A-F341E9B3CA59";
paths = (
{
closed = 1;
nodes = (
"201 -98 LINE",
"475 380 LINE",
"201 858 LINE",
"172 840 LINE",
"435 380 LINE",
"172 -80 LINE"
);
},
{
closed = 1;
nodes = (
"59 -98 LINE",
"333 380 LINE",
"59 858 LINE",
"30 840 LINE",
"293 380 LINE",
"30 -80 LINE"
);
}
);
vertWidth = 1000;
width = 675;
}
);
note = dblanglebracketright;
unicode = 300B;
},
{
glyphname = tortoiseshellbracketleft;
lastChange = "2017-04-16 02:55:25 +0000";
layers = (
{
layerId = "74F1BA84-66A2-47A9-8A2A-F341E9B3CA59";
paths = (
{
closed = 1;
nodes = (
"432 -95 LINE",
"450 -59 LINE",
"243 39 LINE",
"243 721 LINE",
"450 819 LINE",
"432 855 LINE",
"200 746 LINE",
"200 14 LINE"
);
}
);
vertWidth = 1000;
width = 480;
}
);
note = tortoiseshellbracketleft;
unicode = 3014;
},
{
glyphname = tortoiseshellbracketright;
lastChange = "2017-04-16 02:55:39 +0000";
layers = (
{
layerId = "74F1BA84-66A2-47A9-8A2A-F341E9B3CA59";
paths = (
{
closed = 1;
nodes = (
"48 -95 LINE",
"280 14 LINE",
"280 746 LINE",
"48 855 LINE",
"30 819 LINE",
"237 721 LINE",
"237 39 LINE",
"30 -59 LINE"
);
}
);
vertWidth = 1000;
width = 480;
}
);
note = tortoiseshellbracketright;
unicode = 3015;
},
{
glyphname = whitecornerbracketleft;
lastChange = "2017-04-16 02:55:25 +0000";
layers = (
{
layerId = "74F1BA84-66A2-47A9-8A2A-F341E9B3CA59";
paths = (
{
closed = 1;
nodes = (
"547 709 LINE",
"547 855 LINE",
"200 855 LINE",
"200 217 LINE",
"350 217 LINE",
"350 709 LINE"
);
},
{
closed = 1;
nodes = (
"519 827 LINE",
"519 737 LINE",
"322 737 LINE",
"322 245 LINE",
"228 245 LINE",
"228 827 LINE"
);
}
);
vertWidth = 1000;
width = 577;
}
);
note = whitecornerbracketleft;
unicode = 300E;
},
{
glyphname = whitecornerbracketright;
lastChange = "2017-04-16 02:55:39 +0000";
layers = (
{
layerId = "74F1BA84-66A2-47A9-8A2A-F341E9B3CA59";
paths = (
{
closed = 1;
nodes = (
"30 51 LINE",
"30 -95 LINE",
"377 -95 LINE",
"377 543 LINE",
"227 543 LINE",
"227 51 LINE"
);
},
{
closed = 1;
nodes = (
"58 -67 LINE",
"58 23 LINE",
"255 23 LINE",
"255 515 LINE",
"349 515 LINE",
"349 -67 LINE"
);
}
);
vertWidth = 1000;
width = 577;
}
);
note = whitecornerbracketright;
unicode = 300F;
},
{
glyphname = whitelenticularbracketleft;
lastChange = "2017-04-16 02:55:25 +0000";
layers = (
{
layerId = "74F1BA84-66A2-47A9-8A2A-F341E9B3CA59";
paths = (
{
closed = 1;
nodes = (
"547 -76 LINE",
"389 -4 OFFCURVE",
"284 154 OFFCURVE",
"284 380 CURVE SMOOTH",
"284 606 OFFCURVE",
"389 764 OFFCURVE",
"547 836 CURVE",
"547 855 LINE",
"200 855 LINE",
"200 -95 LINE",
"547 -95 LINE"
);
},
{
closed = 1;
nodes = (
"228 -67 LINE",
"228 827 LINE",
"474 827 LINE",
"383 770 OFFCURVE",
"256 638 OFFCURVE",
"256 380 CURVE SMOOTH",
"256 122 OFFCURVE",
"383 -10 OFFCURVE",
"474 -67 CURVE"
);
}
);
vertWidth = 1000;
width = 577;
}
);
note = whitelenticularbracketleft;
unicode = 3016;
},
{
glyphname = whitelenticularbracketright;
lastChange = "2017-04-16 02:55:39 +0000";
layers = (
{
layerId = "74F1BA84-66A2-47A9-8A2A-F341E9B3CA59";
paths = (
{
closed = 1;
nodes = (
"377 -95 LINE",
"377 855 LINE",
"30 855 LINE",
"30 836 LINE",
"188 764 OFFCURVE",
"293 606 OFFCURVE",
"293 380 CURVE SMOOTH",
"293 154 OFFCURVE",
"188 -4 OFFCURVE",
"30 -76 CURVE",
"30 -95 LINE"
);
},
{
closed = 1;
nodes = (
"321 638 OFFCURVE",
"194 770 OFFCURVE",
"103 827 CURVE",
"349 827 LINE",
"349 -67 LINE",
"103 -67 LINE",
"194 -10 OFFCURVE",
"321 122 OFFCURVE",
"321 380 CURVE SMOOTH"
);
}
);
vertWidth = 1000;
width = 577;
}
);
note = whitelenticularbracketright;
unicode = 3017;
},
{
glyphname = bracketleft.full;
lastChange = "2017-04-16 02:55:25 +0000";
layers = (
{
layerId = "74F1BA84-66A2-47A9-8A2A-F341E9B3CA59";
paths = (
{
closed = 1;
nodes = (
"200 -95 LINE",
"450 -95 LINE",
"450 -54 LINE",
"243 -54 LINE",
"243 814 LINE",
"450 814 LINE",
"450 855 LINE",
"200 855 LINE"
);
}
);
vertWidth = 1000;
width = 480;
}
);
note = bracketleft.full;
unicode = FF3B;
},
{
glyphname = bracketright.full;
lastChange = "2017-04-16 02:55:39 +0000";
layers = (
{
layerId = "74F1BA84-66A2-47A9-8A2A-F341E9B3CA59";
paths = (
{
closed = 1;
nodes = (
"280 -95 LINE",
"280 855 LINE",
"30 855 LINE",
"30 814 LINE",
"237 814 LINE",
"237 -54 LINE",
"30 -54 LINE",
"30 -95 LINE"
);
}
);
vertWidth = 1000;
width = 480;
}
);
note = bracketright.full;
unicode = FF3D;
},
{
glyphname = parenleft.full;
lastChange = "2017-04-16 02:55:25 +0000";
layers = (
{
layerId = "74F1BA84-66A2-47A9-8A2A-F341E9B3CA59";
paths = (
{
closed = 1;
nodes = (
"200 136 OFFCURVE",
"342 -8 OFFCURVE",
"493 -95 CURVE",
"506 -78 LINE",
"395 21 OFFCURVE",
"312 158 OFFCURVE",
"312 380 CURVE SMOOTH",
"312 602 OFFCURVE",
"395 739 OFFCURVE",
"506 838 CURVE",
"493 855 LINE",
"342 768 OFFCURVE",
"200 624 OFFCURVE",
"200 380 CURVE SMOOTH"
);
}
);
vertWidth = 1000;
width = 536;
}
);
note = parenleft.full;
unicode = FF08;
},
{
glyphname = parenright.full;
lastChange = "2017-04-16 02:55:39 +0000";
layers = (
{
layerId = "74F1BA84-66A2-47A9-8A2A-F341E9B3CA59";
paths = (
{
closed = 1;
nodes = (
"30 838 LINE",
"141 739 OFFCURVE",
"224 602 OFFCURVE",
"224 380 CURVE SMOOTH",
"224 158 OFFCURVE",
"141 21 OFFCURVE",
"30 -78 CURVE",
"43 -95 LINE",
"194 -8 OFFCURVE",
"336 136 OFFCURVE",
"336 380 CURVE SMOOTH",
"336 624 OFFCURVE",
"194 768 OFFCURVE",
"43 855 CURVE"
);
}
);
vertWidth = 1000;
width = 536;
}
);
note = parenright.full;
unicode = FF09;
},
{
glyphname = "dot-kata";
lastChange = "2017-04-16 02:54:42 +0000";
layers = (
{
layerId = "74F1BA84-66A2-47A9-8A2A-F341E9B3CA59";
paths = (
{
closed = 1;
nodes = (
"390 446 OFFCURVE",
"336 500 OFFCURVE",
"270 500 CURVE SMOOTH",
"204 500 OFFCURVE",
"150 446 OFFCURVE",
"150 380 CURVE SMOOTH",
"150 314 OFFCURVE",
"204 260 OFFCURVE",
"270 260 CURVE SMOOTH",
"336 260 OFFCURVE",
"390 314 OFFCURVE",
"390 380 CURVE SMOOTH"
);
}
